<svg width="226" height="226" viewBox="0 0 226 226" fill="none" xmlns="http://www.w3.org/2000/svg">
<g filter="url(#filter0_d_112_1567)">
<circle cx="113" cy="102" r="90" fill="black"/>
<circle cx="113" cy="102" r="90" stroke="#F4C31E" stroke-width="5"/>
</g>
<g clip-path="url(#clip0_112_1567)">
<path d="M134.675 68.0922V52.1462C134.675 49.6472 133.246 48.8142 131.459 48.3382C129.435 47.8622 123.242 47.1482 111.809 47.2672C100.376 47.1482 94.1829 47.8622 92.1583 48.3382C90.3719 48.8142 88.9428 49.6472 88.9428 52.1462V68.0922H134.675Z" fill="url(#paint0_linear_112_1567)"/>
<path d="M142.162 145.803C142.162 148.897 142.162 153.657 142.162 156.751H81.424C81.424 153.657 81.424 148.897 81.424 145.803H142.162Z" fill="url(#paint1_linear_112_1567)"/>
<path d="M64.1647 123.548C64.1647 135.21 67.2611 146.515 87.5071 146.515H135.978C156.224 146.515 159.32 135.091 159.32 123.548V91.1801C159.32 79.5181 156.224 68.2131 135.978 68.2131H87.5071C67.2611 68.0941 64.1647 79.5181 64.1647 91.1801V123.548Z" fill="url(#paint2_linear_112_1567)"/>
<path d="M141.101 147.704C122.761 147.228 104.42 147.109 86.0795 147.585C85.0076 147.585 83.9358 147.585 82.864 147.704C82.2685 147.704 82.5067 150.56 82.5067 151.036C82.5067 152.226 82.2685 153.416 82.5067 154.606C82.7449 155.677 83.2212 156.272 84.2931 156.272C84.5313 156.272 87.0322 156.272 87.1513 155.915C87.6277 152.583 89.7714 150.917 92.9869 150.917C96.917 150.917 100.847 150.917 104.777 150.917C117.044 150.798 129.311 150.322 141.101 147.704Z" fill="#F4C31E"/>
<path d="M96.8167 151.043C96.8167 149.496 96.2213 148.425 95.5067 147.711C94.0776 147.711 92.5294 147.711 91.1002 147.711C90.3857 148.306 89.9093 149.139 89.6711 150.448C88.9565 155.327 96.8167 155.922 96.8167 151.043Z" fill="#F9DF4F"/>
<path d="M159.44 123.548V91.1801C159.44 79.5181 156.343 68.2131 136.097 68.2131H134.668C144.315 68.3321 150.388 77.6141 150.746 87.4912C150.746 87.4912 150.746 126.166 150.746 128.665C150.746 132.354 149.674 133.782 145.744 133.782H77.8605C73.9304 133.782 72.8585 132.354 72.8585 128.665C72.8585 126.166 72.8585 87.4912 72.8585 87.4912C73.2158 77.7331 79.2896 68.3321 88.9362 68.2131H87.5071C67.2611 68.0941 64.1647 79.5181 64.1647 91.1801V123.548C64.1647 135.21 67.2611 146.515 87.5071 146.515H135.978C156.343 146.515 159.44 135.091 159.44 123.548Z" fill="#F4C31E"/>
<path d="M74.2887 124.026C74.2887 130.214 83.8162 130.214 83.8162 124.026V90.5872C83.8162 84.3992 74.2887 84.3992 74.2887 90.5872V124.026Z" fill="#F9DF4F"/>
<path d="M136.094 68.0938H87.5039C72.2599 68.0938 66.7815 74.5198 64.876 82.6118C85.0029 79.2798 99.294 79.5178 111.203 79.5178H111.799C123.708 79.5178 138.476 79.2798 158.603 82.6118C156.816 74.6388 151.338 68.0938 136.094 68.0938Z" fill="#FDE76F"/>
<path d="M88.3347 72.8573C88.9302 76.7843 74.2817 79.1643 73.6862 75.3563C73.0907 71.4293 87.7393 69.0493 88.3347 72.8573Z" fill="#FDF5A5"/>
<path d="M142.162 146.04H81.424V147.706H142.162V146.04Z" fill="#D4A01D"/>
<path d="M134.675 66.4225H88.9428V68.0885H134.675V66.4225Z" fill="#D4A01D"/>
<path d="M95.7176 62.7387V51.9097C95.7176 49.2917 92.0257 49.2917 92.0257 51.9097V62.7387C91.9066 65.3567 95.7176 65.3567 95.7176 62.7387Z" fill="#FDF195"/>
<path d="M122.297 121.979C120.63 123.645 116.104 126.144 111.817 126.263C107.529 126.382 102.527 124.478 102.527 124.478C102.051 124.24 98.5973 122.931 101.456 125.43C104.314 127.81 107.648 128.881 111.817 128.881C111.817 128.881 111.817 128.881 111.936 128.881C115.747 128.881 120.153 127.81 122.773 123.764C123.011 123.169 123.964 120.313 122.297 121.979Z" fill="black"/>
<path d="M97.952 105.181C99.8593 105.181 101.406 103.689 101.406 101.849C101.406 100.008 99.8593 98.5166 97.952 98.5166C96.0446 98.5166 94.4983 100.008 94.4983 101.849C94.4983 103.689 96.0446 105.181 97.952 105.181Z" fill="#EFF0EF"/>
<path d="M125.485 105.181C127.392 105.181 128.938 103.689 128.938 101.849C128.938 100.008 127.392 98.5166 125.485 98.5166C123.577 98.5166 122.031 100.008 122.031 101.849C122.031 103.689 123.577 105.181 125.485 105.181Z" fill="#EFF0EF"/>
<path d="M97.9704 96.9782C94.2785 96.9782 91.4202 100.191 91.4202 104.237C91.4202 108.283 94.3976 111.496 97.9704 111.496C101.662 111.496 104.521 108.283 104.521 104.237C104.521 100.191 101.543 96.9782 97.9704 96.9782ZM97.9704 104.237C96.5412 104.237 95.4694 103.166 95.4694 101.857C95.4694 100.548 96.6603 99.4772 97.9704 99.4772C99.3996 99.4772 100.471 100.548 100.471 101.857C100.471 103.166 99.2805 104.237 97.9704 104.237Z" fill="black"/>
<path d="M125.472 96.9782C121.78 96.9782 118.922 100.191 118.922 104.237C118.922 108.283 121.899 111.496 125.472 111.496C129.164 111.496 132.022 108.283 132.022 104.237C132.022 100.191 129.164 96.9782 125.472 96.9782ZM125.472 104.237C124.043 104.237 122.971 103.166 122.971 101.857C122.971 100.548 124.162 99.4772 125.472 99.4772C126.901 99.4772 127.973 100.548 127.973 101.857C127.973 103.166 126.901 104.237 125.472 104.237Z" fill="black"/>
<path d="M87.5162 92.1084C87.9926 84.6114 99.3066 84.4924 102.046 85.8014C102.522 86.0394 102.879 86.7534 102.76 87.4674C102.76 88.1814 102.046 89.2524 101.569 89.0144C99.5448 87.9434 89.5408 88.0624 87.8735 93.2984C87.6353 93.0604 87.5162 92.1084 87.5162 92.1084Z" fill="black"/>
<path d="M135.86 92.7061C134.669 85.2091 123.355 86.1611 120.854 87.8271C120.378 88.0651 120.139 88.8981 120.259 89.6121C120.378 90.3261 121.092 91.2781 121.569 91.0401C123.474 89.8501 133.478 89.0171 135.622 94.0151C135.86 93.6581 135.86 92.7061 135.86 92.7061Z" fill="black"/>
<path d="M77.6293 110.198C77.6293 110.793 77.153 111.15 76.4384 111.15C75.8429 111.15 75.3666 110.793 75.4857 110.198C75.6048 109.722 75.962 109.365 76.6766 109.365C77.2721 109.365 77.6293 109.841 77.6293 110.198ZM80.8449 116.981C80.2494 116.981 80.1303 117.1 79.773 117.814C79.5348 118.409 80.1303 118.885 80.8449 118.885C81.4403 118.885 81.7976 118.647 81.7976 117.933C81.7976 117.338 81.5594 116.981 80.8449 116.981ZM88.9433 113.054C88.3478 113.054 88.2287 113.173 87.8714 113.887C87.6332 114.482 88.2287 114.958 88.9433 114.958C89.5387 114.958 89.896 114.72 89.896 114.006C89.896 113.411 89.6578 113.054 88.9433 113.054Z" fill="#C3622C"/>
<path d="M143.854 109.371C143.854 109.966 143.615 110.204 142.901 110.204C142.305 110.204 141.591 109.728 141.829 109.133C142.067 108.538 142.186 108.3 142.901 108.3C143.496 108.538 143.854 108.776 143.854 109.371ZM133.373 112.703C132.778 112.703 132.659 112.822 132.301 113.536C132.063 114.131 132.659 114.607 133.373 114.607C133.969 114.607 134.326 114.369 134.326 113.774C134.326 113.06 134.088 112.703 133.373 112.703ZM140.281 117.225C139.685 117.225 139.566 117.344 139.209 118.058C138.971 118.653 139.566 119.129 140.281 119.129C140.876 119.129 141.233 118.891 141.233 118.296C141.233 117.463 140.876 117.225 140.281 117.225Z" fill="#C3622C"/>
<path d="M139.439 63.444V52.139C139.439 49.64 138.486 45.118 132.531 43.69C130.15 43.095 123.957 42.5 113.834 42.5C113.238 42.5 112.524 42.5 111.809 42.5C111.095 42.5 110.499 42.5 109.785 42.5C99.6615 42.5 93.4687 43.095 91.0868 43.69C85.1321 45.118 84.1793 49.64 84.1793 52.139V63.444C59.4078 65.11 59.4078 84.507 59.4078 91.171V123.539C59.4078 129.132 59.4078 145.316 76.6764 149.957V156.74C76.6764 159.358 78.8201 161.5 81.4402 161.5H142.178C144.798 161.5 146.942 159.358 146.942 156.74V149.957C164.21 145.197 164.21 129.013 164.21 123.539V91.171C164.21 84.507 164.21 65.11 139.439 63.444ZM81.4402 156.74C81.4402 154.717 81.4402 152.099 81.4402 149.6H142.178C142.178 152.099 142.178 154.717 142.178 156.74H81.4402ZM159.447 123.539C159.447 133.892 156.946 144.007 142.178 146.149H81.4402C66.6726 143.888 64.1716 133.773 64.1716 123.539V91.171C64.1716 79.509 67.268 68.204 87.514 68.204H88.824V52.139C88.824 49.64 90.2531 48.807 92.0395 48.331C94.0641 47.855 99.6615 47.26 109.785 47.26C110.38 47.26 111.095 47.26 111.809 47.26C112.524 47.26 113.119 47.26 113.834 47.26C123.957 47.26 129.673 47.855 131.46 48.331C133.246 48.807 134.675 49.64 134.675 52.139V68.085H135.985C156.231 68.085 159.328 79.509 159.328 91.052V123.539H159.447Z" fill="black"/>
</g>
<defs>
<filter id="filter0_d_112_1567" x="0.5" y="0.5" width="225" height="225" filterUnits="userSpaceOnUse" color-interpolation-filters="sRGB">
<feFlood flood-opacity="0" result="BackgroundImageFix"/>
<feColorMatrix in="SourceAlpha" type="matrix" values="0 0 0 0 0 0 0 0 0 0 0 0 0 0 0 0 0 0 127 0" result="hardAlpha"/>
<feOffset dy="11"/>
<feGaussianBlur stdDeviation="10"/>
<feComposite in2="hardAlpha" operator="out"/>
<feColorMatrix type="matrix" values="0 0 0 0 0 0 0 0 0 0 0 0 0 0 0 0 0 0 0.34 0"/>
<feBlend mode="normal" in2="BackgroundImageFix" result="effect1_dropShadow_112_1567"/>
<feBlend mode="normal" in="SourceGraphic" in2="effect1_dropShadow_112_1567" result="shape"/>
</filter>
<linearGradient id="paint0_linear_112_1567" x1="111.809" y1="68.1464" x2="111.809" y2="47.2672" gradientUnits="userSpaceOnUse">
<stop stop-color="#FAC821"/>
<stop offset="1" stop-color="#FAD81E"/>
</linearGradient>
<linearGradient id="paint1_linear_112_1567" x1="81.4057" y1="151.28" x2="142.184" y2="151.28" gradientUnits="userSpaceOnUse">
<stop stop-color="#FAC821"/>
<stop offset="1" stop-color="#FAD81E"/>
</linearGradient>
<linearGradient id="paint2_linear_112_1567" x1="111.802" y1="146.473" x2="111.802" y2="68.1485" gradientUnits="userSpaceOnUse">
<stop stop-color="#FAC821"/>
<stop offset="1" stop-color="#FAD81E"/>
</linearGradient>
<clipPath id="clip0_112_1567">
<rect width="107.184" height="119" fill="white" transform="translate(59.4078 42.5)"/>
</clipPath>
</defs>
</svg>
