<svg width="226" height="226" viewBox="0 0 226 226" fill="none" xmlns="http://www.w3.org/2000/svg">
<g filter="url(#filter0_d_112_1593)">
<circle cx="113.07" cy="102" r="90" fill="black"/>
<circle cx="113.07" cy="102" r="90" stroke="#F4C31E" stroke-width="5"/>
</g>
<path d="M134.91 68.0922V52.1462C134.91 49.6472 133.47 48.8142 131.67 48.3382C129.63 47.8622 123.39 47.1482 111.87 47.2672C100.35 47.1482 94.11 47.8622 92.07 48.3382C90.27 48.8142 88.83 49.6472 88.83 52.1462V68.0922H134.91Z" fill="url(#paint0_linear_112_1593)"/>
<path d="M142.454 145.803C142.454 148.897 142.454 153.657 142.454 156.751H81.2539C81.2539 153.657 81.2539 148.897 81.2539 145.803H142.454Z" fill="url(#paint1_linear_112_1593)"/>
<path d="M63.8633 123.548C63.8633 135.21 66.9833 146.515 87.3833 146.515H136.223C156.623 146.515 159.743 135.091 159.743 123.548V91.1801C159.743 79.5181 156.623 68.2131 136.223 68.2131H87.3833C66.9833 68.0941 63.8633 79.5181 63.8633 91.1801V123.548Z" fill="url(#paint2_linear_112_1593)"/>
<path d="M141.385 147.704C122.905 147.228 104.425 147.109 85.9449 147.585C84.8649 147.585 83.7849 147.585 82.7049 147.704C82.1049 147.704 82.3449 150.56 82.3449 151.036C82.3449 152.226 82.1049 153.416 82.3449 154.606C82.5849 155.677 83.0649 156.272 84.1449 156.272C84.3849 156.272 86.9049 156.272 87.0249 155.915C87.5049 152.583 89.6649 150.917 92.9049 150.917C96.8649 150.917 100.825 150.917 104.785 150.917C117.145 150.798 129.505 150.322 141.385 147.704Z" fill="#FE85C1"/>
<path d="M96.7638 151.043C96.7638 149.496 96.1638 148.425 95.4438 147.711C94.0038 147.711 92.4438 147.711 91.0038 147.711C90.2838 148.306 89.8038 149.139 89.5638 150.448C88.8438 155.327 96.7638 155.922 96.7638 151.043Z" fill="#FFE2F0"/>
<path d="M159.863 123.548V91.1801C159.863 79.5181 156.743 68.2131 136.343 68.2131H134.903C144.623 68.3321 150.743 77.6141 151.103 87.4911C151.103 87.4911 151.103 126.166 151.103 128.665C151.103 132.354 150.023 133.782 146.063 133.782H77.6633C73.7033 133.782 72.6233 132.354 72.6233 128.665C72.6233 126.166 72.6233 87.4911 72.6233 87.4911C72.9833 77.7331 79.1033 68.3321 88.8233 68.2131H87.3833C66.9833 68.0941 63.8633 79.5181 63.8633 91.1801V123.548C63.8633 135.21 66.9833 146.515 87.3833 146.515H136.223C156.743 146.515 159.863 135.091 159.863 123.548Z" fill="#FE85C1"/>
<path d="M74.0644 124.026C74.0644 130.214 83.6644 130.214 83.6644 124.026V90.5872C83.6644 84.3992 74.0644 84.3992 74.0644 90.5872V124.026Z" fill="#FFC0DF"/>
<path d="M136.34 68.0938H87.3801C72.0201 68.0938 66.5001 74.5198 64.5801 82.6117C84.8601 79.2798 99.2599 79.5177 111.26 79.5177H111.86C123.86 79.5177 138.74 79.2798 159.02 82.6117C157.22 74.6388 151.7 68.0938 136.34 68.0938Z" fill="#FFC4E1"/>
<path d="M88.2173 72.8573C88.8173 76.7843 74.0573 79.1643 73.4573 75.3563C72.8573 71.4293 87.6173 69.0493 88.2173 72.8573Z" fill="#FFE2F0"/>
<path d="M142.454 146.04H81.2539V147.706H142.454V146.04Z" fill="#D4A01D"/>
<path d="M134.91 66.4225H88.83V68.0885H134.91V66.4225Z" fill="#E95DA2"/>
<path d="M95.6563 62.7387V51.9097C95.6563 49.2917 91.9363 49.2917 91.9363 51.9097V62.7387C91.8163 65.3567 95.6563 65.3567 95.6563 62.7387Z" fill="#FFE2F0"/>
<path d="M157.029 107.001C156.429 106.644 155.949 106.882 155.349 107.12C153.789 107.953 151.149 110.214 148.269 111.88C148.389 111.404 148.389 110.809 148.149 110.452L148.029 110.333C148.629 109.024 149.469 108.31 149.829 108.072C150.189 108.191 150.549 108.191 150.909 108.072C151.029 108.072 151.149 107.953 151.149 107.834C151.509 107.477 151.749 106.882 151.509 106.406C151.509 106.287 151.389 106.287 151.389 106.168C151.029 105.692 150.429 105.692 149.949 105.93C149.829 105.93 149.709 106.049 149.709 106.168C149.349 106.406 149.229 106.882 149.349 107.358C148.869 107.715 148.029 108.429 147.429 109.738C147.429 109.738 147.429 109.738 147.309 109.738C147.189 109.738 147.069 109.738 146.949 109.738C146.709 108.548 147.069 107.358 147.189 106.882C147.309 106.882 147.429 106.882 147.549 106.763C147.789 106.644 148.029 106.287 148.149 106.049C148.269 105.692 148.269 105.335 148.029 105.097C147.909 104.859 147.669 104.621 147.429 104.621C147.189 104.502 146.829 104.621 146.589 104.74C146.349 104.859 146.109 105.216 145.989 105.454C145.869 105.811 145.869 106.168 146.109 106.406C146.109 106.525 146.229 106.644 146.349 106.644C146.229 107.239 145.869 108.667 146.109 109.976C145.749 110.214 145.389 110.571 145.269 111.047C143.829 108.072 142.869 104.74 142.029 103.193C141.669 102.717 141.429 102.122 140.709 102.122C140.229 102.122 139.869 102.36 139.509 102.479C136.149 104.383 134.589 110.809 135.909 113.665C136.029 113.903 136.269 114.022 136.389 114.141C136.269 114.498 136.149 114.855 136.029 115.212C135.669 117.116 135.429 119.02 136.029 120.091C136.029 120.21 136.149 120.329 136.269 120.448C136.869 121.162 137.829 121.043 138.789 120.805C139.749 120.567 140.829 120.091 141.909 119.496C142.509 119.139 143.109 118.782 143.709 118.544C143.709 119.02 143.709 119.377 143.949 119.615C144.069 119.734 144.189 119.972 144.429 119.972C144.669 120.091 144.909 119.972 145.029 119.853C145.269 119.734 145.509 119.377 145.749 119.02C145.989 119.615 146.349 120.21 146.589 120.805C147.189 121.876 147.789 122.828 148.389 123.661C149.109 124.375 149.829 124.97 150.669 124.732C150.789 124.732 150.909 124.613 151.029 124.613C152.109 124.018 152.949 122.352 153.669 120.567C153.789 120.21 153.909 119.853 154.029 119.496C154.269 119.496 154.509 119.496 154.749 119.377C157.389 117.711 159.669 111.404 157.989 108.072C157.629 107.715 157.389 107.358 157.029 107.001Z" fill="#E95DA2"/>
<path d="M66.0654 108.072C64.3854 111.523 66.6654 117.711 69.3054 119.377C69.5454 119.496 69.7854 119.496 70.0254 119.496C70.1454 119.853 70.2654 120.21 70.3854 120.567C71.1054 122.352 72.0654 124.018 73.0254 124.613C73.1454 124.613 73.2654 124.732 73.3854 124.732C74.3454 124.97 75.0654 124.375 75.6654 123.661C76.3854 122.947 76.9854 121.876 77.4654 120.805C77.8254 120.21 78.0654 119.615 78.3054 119.02C78.5454 119.377 78.7854 119.615 79.0254 119.853C79.1454 119.972 79.3854 119.972 79.6254 119.972C79.8654 119.853 79.9854 119.734 80.1054 119.615C80.2254 119.377 80.3454 118.901 80.3454 118.544C80.8254 118.901 81.4254 119.258 82.1454 119.496C83.2254 120.091 84.3054 120.567 85.2654 120.805C86.2254 121.043 87.1854 121.162 87.7854 120.448C87.9054 120.329 87.9054 120.21 88.0254 120.091C88.5054 119.02 88.3854 117.116 88.0254 115.212C87.9054 114.855 87.7854 114.498 87.6654 114.141C87.9054 114.022 88.0254 113.784 88.1454 113.665C88.1454 113.665 88.1454 113.546 88.1454 113.665C89.4654 110.809 87.7854 104.383 84.5454 102.479C84.1854 102.241 83.7054 102.122 83.3454 102.122C82.6254 102.122 82.3854 102.598 82.0254 103.193C81.1854 104.74 80.2254 108.072 78.7854 111.047C78.6654 110.571 78.3054 110.214 77.9454 109.976C78.1854 108.548 77.8254 107.239 77.7054 106.644C77.8254 106.525 77.8254 106.525 77.9454 106.406C78.0654 106.168 78.1854 105.811 78.0654 105.454C77.9454 105.097 77.7054 104.859 77.4654 104.74C77.2254 104.621 76.9854 104.621 76.6254 104.621C76.3854 104.74 76.1454 104.859 76.0254 105.097C75.9054 105.216 75.9054 105.573 76.0254 105.811C76.1454 106.168 76.3854 106.406 76.6254 106.525C76.7454 106.525 76.8654 106.644 76.9854 106.644C77.1054 107.239 77.3454 108.429 77.2254 109.5C77.1054 109.5 76.9854 109.5 76.8654 109.5C76.8654 109.5 76.8654 109.5 76.7454 109.5C76.1454 108.191 75.3054 107.477 74.8254 107.12C74.9454 106.644 74.7054 106.287 74.4654 105.93C74.3454 105.811 74.3454 105.811 74.2254 105.692C73.7454 105.454 73.1454 105.454 72.7854 105.93C72.7854 106.049 72.6654 106.049 72.6654 106.168C72.4254 106.644 72.5454 107.239 73.0254 107.596C73.1454 107.715 73.1454 107.715 73.2654 107.834C73.6254 107.953 73.9854 108.072 74.3454 107.834C74.7054 108.072 75.5454 108.786 76.1454 110.095L76.0254 110.214C75.7854 110.69 75.7854 111.166 75.9054 111.642C73.0254 109.976 70.3854 107.715 68.8254 106.882C68.2254 106.644 67.7454 106.287 67.1454 106.763C66.5454 107.358 66.3054 107.715 66.0654 108.072Z" fill="#E95DA2"/>
<path d="M125.673 105.342C127.595 105.342 129.153 103.85 129.153 102.01C129.153 100.17 127.595 98.6779 125.673 98.6779C123.751 98.6779 122.193 100.17 122.193 102.01C122.193 103.85 123.751 105.342 125.673 105.342Z" fill="#EFF0EF"/>
<path d="M98.1109 105.342C100.033 105.342 101.591 103.85 101.591 102.01C101.591 100.17 100.033 98.6779 98.1109 98.6779C96.1889 98.6779 94.6309 100.17 94.6309 102.01C94.6309 103.85 96.1889 105.342 98.1109 105.342Z" fill="#EFF0EF"/>
<path d="M130.371 98.3145C128.931 97.7195 127.371 97.1245 125.811 97.1245C125.331 97.1245 124.971 97.1245 124.491 97.2435C124.371 97.2435 124.371 97.2435 124.251 97.3625C124.011 97.3625 123.891 97.4815 123.651 97.6005C122.451 98.0765 121.491 98.7905 120.771 99.7425C120.771 99.8615 120.651 99.8615 120.651 99.8615C120.651 99.8615 120.651 99.9805 120.531 99.9805C119.691 101.171 119.211 102.718 119.211 104.265C119.211 108.311 122.211 111.524 125.811 111.524C129.531 111.524 132.411 108.311 132.411 104.265C132.411 103.313 132.291 102.48 131.931 101.766C132.171 101.766 132.531 101.766 132.891 101.647C133.971 101.171 134.571 99.1475 134.571 98.7905C133.851 99.1475 132.171 99.1475 130.371 98.3145ZM125.691 104.384C124.251 104.384 123.171 103.313 123.171 102.004C123.171 100.695 124.251 99.6235 125.691 99.6235C127.131 99.6235 128.211 100.695 128.211 102.004C128.211 103.313 127.131 104.384 125.691 104.384Z" fill="black"/>
<path d="M103.377 100.1L103.257 99.9814C103.257 99.8624 103.137 99.8624 103.137 99.8624C102.417 98.9104 101.337 98.0774 100.257 97.7204C100.017 97.6014 99.8971 97.6014 99.6571 97.4824C99.5371 97.4824 99.5371 97.4824 99.4171 97.3634C98.9373 97.2444 98.5773 97.2444 98.0973 97.2444C96.4173 97.2444 94.8573 97.9584 93.5373 98.4344C91.7373 99.1484 89.9373 99.2674 89.3373 98.9104C89.2173 99.2674 89.9373 101.409 91.0173 101.766C91.3773 101.885 91.6173 101.885 91.9773 101.885C91.7373 102.718 91.4973 103.551 91.4973 104.384C91.4973 108.43 94.4973 111.643 98.0973 111.643C101.817 111.643 104.697 108.43 104.697 104.384C104.697 102.718 104.217 101.29 103.377 100.1ZM98.0973 104.384C96.6573 104.384 95.5773 103.313 95.5773 102.004C95.5773 100.695 96.6573 99.6244 98.0973 99.6244C99.5371 99.6244 100.617 100.695 100.617 102.004C100.617 103.313 99.4171 104.384 98.0973 104.384Z" fill="black"/>
<path d="M101.351 122.116C103.031 123.782 107.591 126.281 111.911 126.4C116.231 126.519 121.271 124.615 121.271 124.615C121.751 124.377 125.231 123.068 122.351 125.567C119.471 127.947 116.111 129.018 111.911 129.018C111.911 129.018 111.911 129.018 111.791 129.018C107.951 129.018 103.511 127.947 100.991 123.901C100.631 123.306 99.6711 120.45 101.351 122.116Z" fill="black"/>
<path d="M87.6735 92.954C88.8735 85.457 100.273 86.528 102.793 88.075C103.273 88.313 103.513 89.146 103.393 89.86C103.273 90.455 102.553 91.526 102.073 91.288C100.153 90.098 90.1935 89.265 87.9135 94.263C87.5535 93.787 87.6735 92.954 87.6735 92.954Z" fill="black"/>
<path d="M136.146 92.3642C135.666 84.8672 124.266 84.7482 121.626 86.0572C121.146 86.2952 120.786 87.0092 120.906 87.7232C120.906 88.4372 121.626 89.5082 122.106 89.2702C124.146 88.1992 134.226 88.3182 135.906 93.5542C136.146 93.1972 136.146 92.3642 136.146 92.3642Z" fill="black"/>
<path d="M152.845 111.872C153.445 112.229 153.565 112.705 153.445 113.181C153.205 113.776 152.725 113.895 152.125 113.538C151.525 113.3 151.165 112.705 151.525 112.229C151.765 111.872 152.245 111.634 152.845 111.872ZM143.965 116.632C143.605 117.227 143.725 117.584 144.325 117.822C144.925 118.179 145.645 118.06 145.765 117.465C145.885 116.751 145.885 116.632 145.285 116.275C144.685 116.037 144.325 116.156 143.965 116.632ZM138.925 109.135C138.565 109.73 138.685 110.087 139.285 110.325C139.885 110.682 140.605 110.563 140.725 109.968C140.845 109.254 140.845 109.135 140.245 108.778C139.645 108.54 139.285 108.659 138.925 109.135Z" fill="#8F2733"/>
<path d="M70.867 111.751C71.347 111.394 71.587 111.394 72.187 111.751C72.787 112.108 72.547 112.822 72.067 113.179C71.587 113.536 71.227 113.536 70.747 113.06C70.267 112.465 70.387 112.108 70.867 111.751ZM80.827 110.561C81.187 111.037 81.667 111.037 82.147 110.68C82.627 110.323 82.867 109.609 82.387 109.252C81.787 108.895 81.547 108.895 81.067 109.252C80.467 109.609 80.347 109.966 80.827 110.561ZM78.187 118.177C78.547 118.653 79.027 118.653 79.507 118.296C79.987 117.939 80.227 117.225 79.747 116.868C79.147 116.511 78.907 116.511 78.427 116.868C77.827 117.225 77.707 117.701 78.187 118.177Z" fill="#8F2733"/>
<path d="M139.71 63.444V52.139C139.71 49.64 138.75 45.118 132.75 43.69C130.35 43.095 124.11 42.5 113.91 42.5C113.31 42.5 112.59 42.5 111.87 42.5C111.15 42.5 110.55 42.5 109.83 42.5C99.6303 42.5 93.3903 43.095 90.9903 43.69C84.9903 45.118 84.0303 49.64 84.0303 52.139V63.444C59.0703 65.11 59.0703 84.507 59.0703 91.171V123.539C59.0703 129.132 59.0703 145.316 76.4703 149.957V156.74C76.4703 159.358 78.6303 161.5 81.2703 161.5H142.47C145.11 161.5 147.27 159.358 147.27 156.74V149.957C164.67 145.197 164.67 129.013 164.67 123.539V91.171C164.67 84.507 164.67 65.11 139.71 63.444ZM81.2703 156.74C81.2703 154.717 81.2703 152.099 81.2703 149.6H142.47C142.47 152.099 142.47 154.717 142.47 156.74H81.2703ZM159.87 123.539C159.87 133.892 157.35 144.007 142.47 146.149H81.2703C66.3903 143.888 63.8703 133.773 63.8703 123.539V91.171C63.8703 79.509 66.9903 68.204 87.3903 68.204H88.7103V52.139C88.7103 49.64 90.1503 48.807 91.9503 48.331C93.9903 47.855 99.6303 47.26 109.83 47.26C110.43 47.26 111.15 47.26 111.87 47.26C112.59 47.26 113.19 47.26 113.91 47.26C124.11 47.26 129.87 47.855 131.67 48.331C133.47 48.807 134.91 49.64 134.91 52.139V68.085H136.23C156.63 68.085 159.75 79.509 159.75 91.052V123.539H159.87Z" fill="black"/>
<defs>
<filter id="filter0_d_112_1593" x="0.570312" y="0.5" width="225" height="225" filterUnits="userSpaceOnUse" color-interpolation-filters="sRGB">
<feFlood flood-opacity="0" result="BackgroundImageFix"/>
<feColorMatrix in="SourceAlpha" type="matrix" values="0 0 0 0 0 0 0 0 0 0 0 0 0 0 0 0 0 0 127 0" result="hardAlpha"/>
<feOffset dy="11"/>
<feGaussianBlur stdDeviation="10"/>
<feComposite in2="hardAlpha" operator="out"/>
<feColorMatrix type="matrix" values="0 0 0 0 0 0 0 0 0 0 0 0 0 0 0 0 0 0 0.34 0"/>
<feBlend mode="normal" in2="BackgroundImageFix" result="effect1_dropShadow_112_1593"/>
<feBlend mode="normal" in="SourceGraphic" in2="effect1_dropShadow_112_1593" result="shape"/>
</filter>
<linearGradient id="paint0_linear_112_1593" x1="111.87" y1="68.1463" x2="111.87" y2="47.2672" gradientUnits="userSpaceOnUse">
<stop stop-color="#FE85C1"/>
<stop offset="1" stop-color="#FFA6D2"/>
</linearGradient>
<linearGradient id="paint1_linear_112_1593" x1="81.2356" y1="151.28" x2="142.476" y2="151.28" gradientUnits="userSpaceOnUse">
<stop stop-color="#FF9DCE"/>
<stop offset="1" stop-color="#FFAFD7"/>
</linearGradient>
<linearGradient id="paint2_linear_112_1593" x1="111.863" y1="146.473" x2="111.863" y2="68.1485" gradientUnits="userSpaceOnUse">
<stop stop-color="#FF96CA"/>
<stop offset="1" stop-color="#FFB4D9"/>
</linearGradient>
</defs>
</svg>
