<svg width="103" height="154" viewBox="0 0 103 154" fill="none" xmlns="http://www.w3.org/2000/svg">
<ellipse cx="51.5" cy="101.727" rx="51.5" ry="51.4613" fill="#F4C31E"/>
<path d="M36.3529 107.025C33.425 107.025 31.0515 104.653 31.0515 101.727C31.0515 98.8017 33.425 96.4299 36.3529 96.4299H46.1985V86.5916C46.1985 83.6659 48.572 81.2941 51.4999 81.2941C54.4279 81.2941 56.8014 83.6659 56.8014 86.5916V96.4299H66.647C69.575 96.4299 71.9485 98.8017 71.9485 101.727C71.9485 104.653 69.575 107.025 66.647 107.025H56.8014V116.863C56.8014 119.789 54.4279 122.16 51.4999 122.16C48.572 122.16 46.1985 119.789 46.1985 116.863V107.025H36.3529Z" fill="white" stroke="black" stroke-width="3"/>
<path d="M86.3529 36.5142C86.3529 55.7468 70.7498 71.3398 51.5 71.3398C32.2502 71.3398 16.647 55.7468 16.647 36.5142C16.647 17.2816 32.2502 1.6886 51.5 1.6886C70.7498 1.6886 86.3529 17.2816 86.3529 36.5142Z" fill="#FDF195" stroke="black" stroke-width="3"/>
<rect x="31.5" y="26.0494" width="40" height="31.9649" rx="5" fill="white" stroke="black" stroke-width="2"/>
<path d="M42.6317 25.7652V20.0143C42.6317 17.2529 44.8702 15.0143 47.6317 15.0143H55.3684C58.1298 15.0143 60.3684 17.2529 60.3684 20.0143V25.7652" stroke="black" stroke-width="2"/>
<path d="M42.7411 45.2172C41.0481 45.2172 39.6755 43.7911 39.6755 42.0318C39.6755 40.2725 41.0481 38.8463 42.7411 38.8463H48.4344V32.9304C48.4344 31.1712 49.8069 29.745 51.5 29.745C53.1931 29.745 54.5656 31.1712 54.5656 32.9304V38.8463H60.2589C61.952 38.8463 63.3245 40.2725 63.3245 42.0318C63.3245 43.7911 61.952 45.2172 60.2589 45.2172H54.5656V51.133C54.5656 52.8923 53.1931 54.3185 51.5 54.3185C49.8069 54.3185 48.4344 52.8923 48.4344 51.133V45.2172H42.7411Z" fill="#FF0606" stroke="black" stroke-width="2"/>
</svg>
