<svg width="50" height="50" viewBox="0 0 50 50" fill="none" xmlns="http://www.w3.org/2000/svg">
<circle cx="25" cy="25" r="24" fill="#FDF195"/>
<circle cx="25" cy="25" r="24" fill="black"/>
<circle cx="25" cy="25" r="24" stroke="black"/>
<circle cx="25" cy="25" r="24" stroke="white"/>
<path d="M33.4364 13.576V10.2264C33.4364 9.48592 33.1455 8.14607 31.3273 7.72295C30.6 7.54666 28.7091 7.37036 25.6182 7.37036C25.4364 7.37036 25.2182 7.37036 25 7.37036C24.7818 7.37036 24.6 7.37036 24.3818 7.37036C21.2909 7.37036 19.4 7.54666 18.6727 7.72295C16.8545 8.14607 16.5636 9.48592 16.5636 10.2264V13.576C9 14.0696 9 19.8169 9 21.7914V31.3819C9 33.0391 9 37.8344 14.2727 39.2095V41.2192C14.2727 41.995 14.9273 42.6296 15.7273 42.6296H34.2727C35.0727 42.6296 35.7273 41.995 35.7273 41.2192V39.2095C41 37.7991 41 33.0038 41 31.3819V21.7914C41 19.8169 41 14.0696 33.4364 13.576ZM15.7273 41.2192C15.7273 40.6198 15.7273 39.8441 15.7273 39.1037H34.2727C34.2727 39.8441 34.2727 40.6198 34.2727 41.2192H15.7273ZM39.5455 31.3819C39.5455 34.4495 38.7818 37.4465 34.2727 38.0812H15.7273C11.2182 37.4113 10.4545 34.4142 10.4545 31.3819V21.7914C10.4545 18.336 11.4 14.9864 17.5818 14.9864H17.9818V10.2264C17.9818 9.48592 18.4182 9.2391 18.9636 9.09807C19.5818 8.95703 21.2909 8.78073 24.3818 8.78073C24.5636 8.78073 24.7818 8.78073 25 8.78073C25.2182 8.78073 25.4 8.78073 25.6182 8.78073C28.7091 8.78073 30.4545 8.95703 31 9.09807C31.5455 9.2391 31.9818 9.48592 31.9818 10.2264V14.9511H32.3818C38.5636 14.9511 39.5091 18.336 39.5091 21.7561V31.3819H39.5455Z" fill="#EEBD17"/>
</svg>
