<svg width="104" height="153" viewBox="0 0 104 153" fill="none" xmlns="http://www.w3.org/2000/svg">
<ellipse cx="51.5645" cy="101.539" rx="51.5" ry="51.4613" fill="#C00296"/>
<path d="M36.4174 106.836C33.4895 106.836 31.1159 104.464 31.1159 101.539C31.1159 98.6131 33.4895 96.2413 36.4174 96.2413H46.2629V86.403C46.2629 83.4773 48.6365 81.1055 51.5644 81.1055C54.4923 81.1055 56.8659 83.4773 56.8659 86.403V96.2413H66.7115C69.6394 96.2413 72.013 98.6131 72.013 101.539C72.013 104.464 69.6394 106.836 66.7115 106.836H56.8659V116.674C56.8659 119.6 54.4923 121.972 51.5644 121.972C48.6365 121.972 46.2629 119.6 46.2629 116.674V106.836H36.4174Z" fill="white" stroke="black" stroke-width="3"/>
<path d="M86.4174 36.3256C86.4174 55.5582 70.8142 71.1512 51.5644 71.1512C32.3146 71.1512 16.7115 55.5582 16.7115 36.3256C16.7115 17.093 32.3146 1.5 51.5644 1.5C70.8142 1.5 86.4174 17.093 86.4174 36.3256Z" fill="#E681FF" stroke="black" stroke-width="3"/>
<path d="M33.6703 25.799L26.6984 41.0382C25.1232 44.4813 26.5846 48.574 29.9627 50.1796C33.3407 51.7851 37.3561 50.2955 38.9313 46.8524C38.9313 46.8524 40.2217 44.2272 41.0538 43.0426C43.7626 39.1865 47.5185 38.4369 51.6987 38.4369C55.8789 38.4369 59.4373 39.2695 62.0934 43.0426C63.1521 44.5465 64.1977 46.8524 64.1977 46.8524C65.7729 50.2955 69.7882 51.7851 73.1662 50.1796C76.5443 48.574 78.0057 44.4813 76.4305 41.0382L69.4586 25.799C67.8834 22.3559 63.8681 20.8663 60.49 22.4718C60.49 22.4718 55.3608 24.1673 51.6987 24.2036C47.9381 24.2407 42.6389 22.4718 42.6389 22.4718C39.2608 20.8663 35.2455 22.3559 33.6703 25.799Z" fill="black"/>
<ellipse cx="41.9721" cy="32.4073" rx="3.7493" ry="3.82152" fill="#FF0606"/>
<ellipse cx="61.9051" cy="32.4073" rx="3.7493" ry="3.82152" fill="#04BF00"/>
</svg>
