<svg width="48" height="49" viewBox="0 0 48 49" fill="none" xmlns="http://www.w3.org/2000/svg">
<rect x="1.5" y="1.54272" width="45" height="45" rx="8.5" fill="#FF0606" stroke="black" stroke-width="3"/>
<g clip-path="url(#clip0_249_1387)">
<g clip-path="url(#clip1_249_1387)">
<path d="M34.2588 14.3121H28.6338L28.1932 13.4356C28.0998 13.2482 27.956 13.0905 27.778 12.9804C27.6 12.8703 27.3947 12.812 27.1854 12.8121H21.8275C21.6187 12.8113 21.4138 12.8694 21.2364 12.9797C21.0589 13.0899 20.9162 13.2479 20.8244 13.4356L20.3838 14.3121H14.7588C14.5599 14.3121 14.3691 14.3912 14.2285 14.5318C14.0878 14.6725 14.0088 14.8632 14.0088 15.0621V16.5621C14.0088 16.7611 14.0878 16.9518 14.2285 17.0925C14.3691 17.2331 14.5599 17.3121 14.7588 17.3121H34.2588C34.4577 17.3121 34.6485 17.2331 34.7891 17.0925C34.9298 16.9518 35.0088 16.7611 35.0088 16.5621V15.0621C35.0088 14.8632 34.9298 14.6725 34.7891 14.5318C34.6485 14.3912 34.4577 14.3121 34.2588 14.3121ZM16.5025 34.7028C16.5383 35.274 16.7904 35.8101 17.2076 36.202C17.6247 36.5939 18.1755 36.8121 18.7479 36.8121H30.2697C30.8421 36.8121 31.3929 36.5939 31.81 36.202C32.2271 35.8101 32.4793 35.274 32.515 34.7028L33.5088 18.8121H15.5088L16.5025 34.7028Z" fill="black"/>
<path d="M34.2588 14.3121H28.6338L28.1932 13.4356C28.0998 13.2482 27.956 13.0905 27.778 12.9804C27.6 12.8703 27.3947 12.812 27.1854 12.8121H21.8275C21.6187 12.8113 21.4138 12.8694 21.2364 12.9797C21.0589 13.0899 20.9162 13.2479 20.8244 13.4356L20.3838 14.3121H14.7588C14.5599 14.3121 14.3691 14.3912 14.2285 14.5318C14.0878 14.6725 14.0088 14.8632 14.0088 15.0621V16.5621C14.0088 16.7611 14.0878 16.9518 14.2285 17.0925C14.3691 17.2331 14.5599 17.3121 14.7588 17.3121H34.2588C34.4577 17.3121 34.6485 17.2331 34.7891 17.0925C34.9298 16.9518 35.0088 16.7611 35.0088 16.5621V15.0621C35.0088 14.8632 34.9298 14.6725 34.7891 14.5318C34.6485 14.3912 34.4577 14.3121 34.2588 14.3121ZM16.5025 34.7028C16.5383 35.274 16.7904 35.8101 17.2076 36.202C17.6247 36.5939 18.1755 36.8121 18.7479 36.8121H30.2697C30.8421 36.8121 31.3929 36.5939 31.81 36.202C32.2271 35.8101 32.4793 35.274 32.515 34.7028L33.5088 18.8121H15.5088L16.5025 34.7028Z" fill="white"/>
</g>
</g>
<defs>
<clipPath id="clip0_249_1387">
<rect width="24" height="24" fill="white" transform="translate(12.5088 12.8121)"/>
</clipPath>
<clipPath id="clip1_249_1387">
<rect width="24" height="24" fill="white" transform="translate(12.5088 12.8121)"/>
</clipPath>
</defs>
</svg>
