<svg width="104" height="153" viewBox="0 0 104 153" fill="none" xmlns="http://www.w3.org/2000/svg">
<ellipse cx="52.4355" cy="101.539" rx="51.5" ry="51.4613" fill="#027900"/>
<path d="M37.2885 106.836C34.3605 106.836 31.987 104.464 31.987 101.539C31.987 98.6131 34.3605 96.2413 37.2885 96.2413H47.134V86.403C47.134 83.4773 49.5075 81.1055 52.4355 81.1055C55.3634 81.1055 57.7369 83.4773 57.7369 86.403V96.2413H67.5826C70.5105 96.2413 72.884 98.6131 72.884 101.539C72.884 104.464 70.5105 106.836 67.5826 106.836H57.7369V116.674C57.7369 119.6 55.3634 121.972 52.4355 121.972C49.5075 121.972 47.134 119.6 47.134 116.674V106.836H37.2885Z" fill="white" stroke="black" stroke-width="3"/>
<path d="M87.2885 36.3256C87.2885 55.5582 71.6853 71.1512 52.4355 71.1512C33.1857 71.1512 17.5826 55.5582 17.5826 36.3256C17.5826 17.093 33.1857 1.5 52.4355 1.5C71.6853 1.5 87.2885 17.093 87.2885 36.3256Z" fill="#E1FFAF" stroke="black" stroke-width="3"/>
<path d="M36.0961 51.3314C36.0961 54.0928 38.3346 56.3314 41.0961 56.3314H65.9772C68.7386 56.3314 70.9772 54.0928 70.9772 51.3314V47.3659H36.0961V51.3314Z" fill="#D4A01D" stroke="black" stroke-width="2"/>
<path d="M36.0961 24.3085C36.0961 21.547 38.3346 19.3085 41.0961 19.3085H65.9772C68.7386 19.3085 70.9772 21.547 70.9772 24.3085V28.274H36.0961V24.3085Z" fill="#D4A01D" stroke="black" stroke-width="2"/>
<rect x="34.8914" y="36.4035" width="37.2902" height="2.98852" rx="1.49426" fill="#FAD81E"/>
<rect x="34.8914" y="39.3851" width="37.2902" height="2.98851" rx="1.49426" fill="#BD2E01"/>
<rect x="34.8916" y="33.4081" width="37.2902" height="2.98851" rx="1.49426" fill="#FF0606"/>
<path d="M34.947 46.4819L29.4355 40.7638L36.431 43.183V40.7638L43.4264 43.183H52.3296L58.0531 40.7638V43.183H66.5323L69.924 40.7638L75.4355 43.183L72.0438 46.4819H34.947Z" fill="#31F52D" stroke="black"/>
<path d="M34.9858 29.3211L29.4796 35.0392L36.4683 32.62V35.0392L43.457 32.62H52.3517L58.0697 35.0392V32.62H66.5408L69.9293 35.0392L75.4355 32.62L72.047 29.3211H34.9858Z" fill="#31F52D" stroke="black"/>
</svg>
