<svg width="103" height="154" viewBox="0 0 103 154" fill="none" xmlns="http://www.w3.org/2000/svg">
<ellipse cx="51.5" cy="101.727" rx="51.5" ry="51.4613" fill="#3037E3"/>
<path d="M36.3529 107.025C33.425 107.025 31.0514 104.653 31.0514 101.727C31.0514 98.8017 33.425 96.4299 36.3529 96.4299H46.1984V86.5916C46.1984 83.6659 48.572 81.2941 51.4999 81.2941C54.4278 81.2941 56.8014 83.6659 56.8014 86.5916V96.4299H66.647C69.5749 96.4299 71.9485 98.8017 71.9485 101.727C71.9485 104.653 69.5749 107.025 66.647 107.025H56.8014V116.863C56.8014 119.789 54.4278 122.16 51.4999 122.16C48.572 122.16 46.1984 119.789 46.1984 116.863V107.025H36.3529Z" fill="white" stroke="black" stroke-width="3"/>
<path d="M86.3529 36.5142C86.3529 55.7468 70.7498 71.3398 51.5 71.3398C32.2502 71.3398 16.647 55.7468 16.647 36.5142C16.647 17.2816 32.2502 1.6886 51.5 1.6886C70.7498 1.6886 86.3529 17.2816 86.3529 36.5142Z" fill="#8287FF" stroke="black" stroke-width="3"/>
<path d="M52.5228 33.2258H35.3931C33.243 33.2258 31.5 34.9413 31.5 37.0575C31.5 39.1736 33.243 40.8891 35.3931 40.8891H43.3361L37.6968 46.4393C36.1765 47.9357 36.6097 50.866 37.6968 51.8581C38.784 52.8501 39.3061 53.0143 40.4892 53.0143H41.6437H57.6189C59.769 53.0143 61.512 51.2988 61.512 49.1826C61.512 47.0665 59.769 45.351 57.6189 45.351H49.814C49.814 45.351 54.7981 40.4876 55.315 39.9368C56.4159 38.9679 56.4159 37.0575 56.4159 37.0575C56.4159 34.9413 54.6729 33.2258 52.5228 33.2258Z" fill="white" stroke="black" stroke-width="2"/>
<path d="M65.4985 20.0143H54.062C52.6265 20.0143 51.4628 21.1596 51.4628 22.5724C51.4628 23.9852 52.6265 25.1306 54.062 25.1306H59.3651L55.6001 28.8361C54.585 29.8351 54.8743 31.7916 55.6001 32.4539C56.3259 33.1162 56.6745 33.2258 57.4644 33.2258H58.2351H68.9008C70.3363 33.2258 71.5 32.0805 71.5 30.6677C71.5 29.2548 70.3363 28.1095 68.9008 28.1095H63.6899C63.6899 28.1095 67.0176 24.8625 67.3627 24.4948C68.0976 23.8479 68.0976 22.5724 68.0976 22.5724C68.0976 21.1596 66.934 20.0143 65.4985 20.0143Z" fill="white" stroke="black" stroke-width="2"/>
</svg>
